<?xml version="1.0" standalone="no"?><!DOCTYPE svg PUBLIC "-//W3C//DTD SVG 1.1//EN" "http://www.w3.org/Graphics/SVG/1.1/DTD/svg11.dtd"><svg t="1625374828047" class="icon" viewBox="0 0 1024 1024" version="1.1" xmlns="http://www.w3.org/2000/svg" p-id="2769" width="64" height="64" xmlns:xlink="http://www.w3.org/1999/xlink"><defs><style type="text/css"></style></defs><path d="M520.5 942C337.97 942 190 823.903 190 641.438 190 458.973 337.97 71 520.5 71S851 458.973 851 641.438C851 823.903 703.03 942 520.5 942z" fill="#F3BE7C" p-id="2770"></path><path d="M190.453 623c9.071 172.173 153.37 282.566 330.047 282.566 176.678 0 320.976-110.393 330.047-282.566 0.3 6.239 0.453 12.287 0.453 18.123C851 823.173 703.03 941 520.5 941S190 823.173 190 641.123c0-5.836 0.152-11.884 0.453-18.123z" fill="#E6B87F" p-id="2771"></path><path d="M547.968 780.488c-38.61 80.294 55.597 3.676 38.614-94.105-16.983-97.78-96.047-344.977-78.932-253.997 17.114 90.98 78.926 267.807 40.318 348.102zM567.815 279.156c14.387 119.423 94.817 209.212 113.793 248.037 25.112 51.384 37.451 131.935 36.072 168.014-3.307 86.55-34.269 163.449-18.665 137.362 15.604-26.087 37.884-127.78 32.032-177.259-5.852-49.478-8.75-91.131-35.53-138.398-26.782-47.267-70.777-91.2-99.982-188.078s-27.247-160.626-33.61-166.956c-6.364-6.33-8.496-2.144 5.89 117.278zM451.006 280.31C442.17 389.338 417 460.113 392.418 523.046c-14.464 37.032-12.693 91.887-9.207 133.093 5.014 59.254 61.188 145.964 41.256 127.963-19.932-18.002-51.93-60.037-58.921-127.976-6.99-67.938-1.862-101.268 17.557-147.96 19.42-46.694 46.844-115.405 53.6-204.654 4.504-59.5 5.008-101.187 1.511-125.061 14.42-4.78 18.683 29.174 12.792 101.86z" fill="#EAA06E" p-id="2772"></path></svg>